<?xml version="1.0" encoding="iso-8859-1"?>
<!-- Generator: Adobe Illustrator 19.0.0, SVG Export Plug-In . SVG Version: 6.00 Build 0)  -->
<svg version="1.1" id="Capa_1" xmlns="http://www.w3.org/2000/svg" xmlns:xlink="http://www.w3.org/1999/xlink" x="0px" y="0px"
	 viewBox="0 0 467.668 467.668" style="enable-background:new 0 0 467.668 467.668;" xml:space="preserve">
<path style="fill:#E1E6E9;" d="M416.468,205.737c-6.244,0-11.863,1.249-17.483,3.122c4.371-9.99,6.244-21.229,6.244-33.093
	c0-49.327-39.961-89.288-89.288-89.288c-28.098,0-53.073,13.112-69.307,33.093c-11.239-26.849-37.463-45.58-68.059-45.58
	s-56.195,18.107-68.059,44.332c-35.59,5.62-63.063,36.215-63.063,73.054c0,4.995,0.624,9.99,1.249,14.361
	C21.229,207.61,0,230.088,0,257.561c0,28.722,23.102,51.824,51.824,51.824h364.02c28.722,0,51.824-23.102,51.824-51.824
	S445.19,205.737,416.468,205.737z"/>
<path style="fill:#F6C358;" d="M335.298,393.678H132.995c-4.995,0-8.117-4.995-5.62-9.366l101.776-174.829
	c1.249-1.873,3.122-3.122,5.62-3.122c2.498,0,4.371,1.249,5.62,3.122l101.776,174.829
	C343.415,388.683,340.293,393.678,335.298,393.678z"/>
<path style="fill:#EBF0F3;" d="M234.146,378.693c-3.122,0-6.244-1.249-8.741-3.746s-3.746-5.62-3.746-8.741s1.249-6.244,3.746-8.741
	c2.498-2.498,5.62-3.746,8.741-3.746s6.244,1.249,8.741,3.746c2.498,2.498,3.746,5.62,3.746,8.741s-1.249,6.244-3.746,8.741
	C240.39,377.444,237.268,378.693,234.146,378.693z M222.283,257.561h23.102v21.854l-4.995,60.566h-13.112l-4.995-60.566
	L222.283,257.561L222.283,257.561z"/>
<g>
</g>
<g>
</g>
<g>
</g>
<g>
</g>
<g>
</g>
<g>
</g>
<g>
</g>
<g>
</g>
<g>
</g>
<g>
</g>
<g>
</g>
<g>
</g>
<g>
</g>
<g>
</g>
<g>
</g>
</svg>
